<?xml version="1.0" standalone="no"?><!DOCTYPE svg PUBLIC "-//W3C//DTD SVG 1.1//EN" "http://www.w3.org/Graphics/SVG/1.1/DTD/svg11.dtd"><svg t="1513650802208" class="icon" style="" viewBox="0 0 1024 1024" version="1.1" xmlns="http://www.w3.org/2000/svg" p-id="7755" xmlns:xlink="http://www.w3.org/1999/xlink" width="128" height="128"><defs><style type="text/css"></style></defs><path d="M864.0202739429474 907.4550060272218H160.07779500007626c-44.05870822906495 0-34.403791666030884-68.77417450904846-34.403790893554685-68.77417450904846-1.0572024250030516-41.90874089241028 34.403791666030884-68.77417450904846 34.403790893554685-68.77417450904846s180.53261238098145-87.04081638336181 206.32144592285155-103.15964535713195c20.988855714797975-13.130428333282469 30.460567960739134-38.7877848815918 33.313181190490724-47.954514255523684-61.26814767837526-57.25595266342164-119.27955270767211-152.72744293212892-119.27955193519594-209.9489099407196v-85.96637074470519C278.28505805015567 221.79641217231745 389.9917670536041 116.55253720283508 486.755393705368 116.55253720283508h34.38762605667114c90.29863663673402-1.07444486618042 209.54693650245667 100.94393952369691 206.30528108596803 206.3225242996216v85.96744834899901c0 46.97921516418457-39.33955613136292 148.79822962760923-102.59063166618348 209.3788186454773 2.6209128570556643 8.66453101158142 12.03981785774231 35.12583520889283 33.397240505218505 48.525683155059816 25.72417264938354 16.11882897377014 205.76751946449278 103.15964535713195 205.76751946449278 103.15964535713195s35.378012380599976 26.866511993408203 34.30464511871338 68.77417450904846c-0.0021552085876464845 0 9.63444130897522 68.77309690475462-34.30680032730102 68.77309690475462z" fill="#8a8a8a" p-id="7756"></path></svg>